{"title":"Poltergeist (2015) 720p HD-Rip x264 [Dual-Audio][English Hindi]","uid":12150178,"size":924203521,"categoryP":"video","categoryS":"hd___movies","magnet":"?xt=urn:btih:c3b2ccaa0f7e4a0bb25a4368663895e42deaabf6&amp;dn=Poltergeist+%282015%29+720p+HD-Rip+x264+%5BDual-Audio%5D%5BEnglish+Hindi%5D&amp;tr=udp%3A%2F%2Ftracker.openbittorrent.com%3A80&amp;tr=udp%3A%2F%2Fopen.demonii.com%3A1337&amp;tr=udp%3A%2F%2Ftracker.coppersurfer.tk%3A6969&amp;tr=udp%3A%2F%2Fexodus.desync.com%3A6969","seeders":2,"leechers":10,"uploader":"Kuna7","files":3,"time":1437605265,"description":"Poltergeist (2015) 720p HD-Rip x264 [Dual-Audio][English 5.1 + Hindi] - Mafiaking - M2Tv\n &lt;a href=&quot;\nhttp://i.imgur.com/2ORucFy.png&quot; rel=&quot;nofollow&quot; target=&quot;_NEW&quot;&gt;\nhttp://i.imgur.com/2ORucFy.png&lt;/a&gt;\n &lt;a href=&quot;\nhttp://i.imgur.com/N1G8dLe.jpg&quot; rel=&quot;nofollow&quot; target=&quot;_NEW&quot;&gt;\nhttp://i.imgur.com/N1G8dLe.jpg&lt;/a&gt;\n &lt;a href=&quot;\nhttp://img9.uploadhouse.com/fileuploads/15981/15981250a2a3770f9f004bcdf00afac92833ebdb.png&quot; rel=&quot;nofollow&quot; target=&quot;_NEW&quot;&gt;\nhttp://img9.uploadhouse.com/fileuploads/15981/15981250a2a3770f9f004bcdf00afac92833ebdb.png&lt;/a&gt;\n &lt;a href=&quot;\nhttp://www.imdb.com/title/tt1029360/&quot; rel=&quot;nofollow&quot; target=&quot;_NEW&quot;&gt;\nhttp://www.imdb.com/title/tt1029360/&lt;/a&gt;\n\nRatings: 5.0/10\n\nGENRE: Horror, Thriller\n\n\nGeneral\nUnique ID : 224810674003271340367736275697534130668 (0xA920F5FCC2D5006CA4648BD5DC2259EC)\nComplete name : Poltergeist (2015) 720p HD-Rip x264 [Dual-Audio][English 5.1 + Hindi] - Mafiaking - M2Tv.mkv\nFormat : Matroska\nFormat version : Version 4 / Version 2\nFile size : 873 MiB\nDuration : 1h 33mn\nOverall bit rate : 1 304 Kbps\nMovie name : Poltergeist (2015) 720p HD-Rip x264 [Dual-Audio][English 5.1 + Hindi] - Mafiaking - M2Tv\nEncoded date : UTC 2015-07-21 17:20:53\nWriting application : mkvmerge v8.1.0 ('Psychedelic Postcard') 32bit\nWriting library : libebml v1.3.1 + libmatroska v1.4.2\n\nVideo\nID : 1\nFormat : AVC\nFormat/Info : Advanced Video Codec\nFormat profile : &lt;a class=&quot;__cf_email__&quot; href=&quot;/cdn-cgi/l/email-protection&quot; data-cfemail=&quot;e9a1808e81a9a5dac7d8&quot;&gt;[email&amp;#160;protected]&lt;/a&gt;&lt;script data-cfhash='f9e31' type=&quot;text/javascript&quot;&gt;\n/* &lt;![CDATA[ */!function(){try{var t=&quot;currentScript&quot;in document?document.currentScript:function(){for(var t=document.getElementsByTagName(&quot;script&quot;),e=t.length;e--;)if(t[e].getAttribute(&quot;data-cfhash&quot;))return t[e]}();if(t&amp;&amp;t.previousSibling){var e,r,n,i,c=t.previousSibling,a=c.getAttribute(&quot;data-cfemail&quot;);if(a){for(e=&quot;&quot;,r=parseInt(a.substr(0,2),16),n=2;a.length-n;n+=2)i=parseInt(a.substr(n,2),16)^r,e+=String.fromCharCode(i);e=document.createTextNode(e),c.parentNode.replaceChild(e,c)}t.parentNode.removeChild(t);}}catch(u){}}()/* ]]&gt; */&lt;/script&gt;\nFormat settings, CABAC : Yes\nFormat settings, ReFrames : 4 frames\nCodec ID : V_MPEG4/ISO/AVC\nDuration : 1h 33mn\nBit rate : 950 Kbps\nWidth : 1 280 pixels\nHeight : 534 pixels\nDisplay aspect ratio : 2.40:1\nFrame rate mode : Constant\nFrame rate : 23.976 fps\nColor space : YUV\nChroma subsampling : 4:2:0\nBit depth : 8 bits\nScan type : Progressive\nBits/(Pixel*Frame) : 0.058\nStream size : 620 MiB (71%)\nTitle : Mafiaking\nLanguage : English\nDefault : Yes\nForced : No\n\nAudio #1\nID : 2\nFormat : AC-3\nFormat/Info : Audio Coding 3\nMode extension : CM (complete main)\nFormat settings, Endianness : Big\nCodec ID : A_AC3\nDuration : 1h 33mn\nBit rate mode : Constant\nBit rate : 128 Kbps\nChannel(s) : 2 channels\nChannel positions : Front: L R\nSampling rate : 48.0 KHz\nCompression mode : Lossy\nStream size : 85.7 MiB (10%)\nTitle : Mafiaking\nLanguage : Hindi\nDefault : Yes\nForced : No\n\nAudio #2\nID : 3\nFormat : AC-3\nFormat/Info : Audio Coding 3\nMode extension : CM (complete main)\nFormat settings, Endianness : Big\nCodec ID : A_AC3\nDuration : 1h 33mn\nBit rate mode : Constant\nBit rate : 224 Kbps\nChannel(s) : 6 channels\nChannel positions : Front: L C R, Side: L R, LFE\nSampling rate : 48.0 KHz\nCompression mode : Lossy\nStream size : 150 MiB (17%)\nTitle : Mafiaking\nLanguage : English\nDefault : No\nForced : No\n &lt;a href=&quot;\nhttp://icons.iconarchive.com/icons/tribalmarkings/colorflow/256/screenshots-icon.png&quot; rel=&quot;nofollow&quot; target=&quot;_NEW&quot;&gt;\nhttp://icons.iconarchive.com/icons/tribalmarkings/colorflow/256/screenshots-icon.png&lt;/a&gt;\n &lt;a href=&quot;\nhttp://i.imgur.com/1LsNyB1.jpg&quot; rel=&quot;nofollow&quot; target=&quot;_NEW&quot;&gt;\nhttp://i.imgur.com/1LsNyB1.jpg&lt;/a&gt;\n &lt;a href=&quot;\nhttp://i.imgur.com/GTt2lZt.jpg&quot; rel=&quot;nofollow&quot; target=&quot;_NEW&quot;&gt;\nhttp://i.imgur.com/GTt2lZt.jpg&lt;/a&gt;\n &lt;a href=&quot;\nhttp://i.imgur.com/vzCCaA3.jpg&quot; rel=&quot;nofollow&quot; target=&quot;_NEW&quot;&gt;\nhttp://i.imgur.com/vzCCaA3.jpg&lt;/a&gt;\n &lt;a href=&quot;\nhttp://i.imgur.com/Ex4vhol.jpg&quot; rel=&quot;nofollow&quot; target=&quot;_NEW&quot;&gt;\nhttp://i.imgur.com/Ex4vhol.jpg&lt;/a&gt;\n &lt;a href=&quot;\nhttp://i.imgur.com/kvMdOpS.jpg&quot; rel=&quot;nofollow&quot; target=&quot;_NEW&quot;&gt;\nhttp://i.imgur.com/kvMdOpS.jpg&lt;/a&gt;\n &lt;a href=&quot;\nhttp://i.imgur.com/IZbu7Rh.jpg&quot; rel=&quot;nofollow&quot; target=&quot;_NEW&quot;&gt;\nhttp://i.imgur.com/IZbu7Rh.jpg&lt;/a&gt;\n &lt;a href=&quot;\nhttp://i.imgur.com/KoLxEhk.jpg&quot; rel=&quot;nofollow&quot; target=&quot;_NEW&quot;&gt;\nhttp://i.imgur.com/KoLxEhk.jpg&lt;/a&gt;\n &lt;a href=&quot;\nhttp://i.imgur.com/fFcFJ9v.jpg&quot; rel=&quot;nofollow&quot; target=&quot;_NEW&quot;&gt;\nhttp://i.imgur.com/fFcFJ9v.jpg&lt;/a&gt;\n &lt;a href=&quot;\nhttp://i.imgur.com/SAFzx0G.jpg&quot; rel=&quot;nofollow&quot; target=&quot;_NEW&quot;&gt;\nhttp://i.imgur.com/SAFzx0G.jpg&lt;/a&gt;\n &lt;a href=&quot;\nhttp://i.imgur.com/gW2ub4f.jpg&quot; rel=&quot;nofollow&quot; target=&quot;_NEW&quot;&gt;\nhttp://i.imgur.com/gW2ub4f.jpg&lt;/a&gt;\n\nThanks To Honey For Hindi Audio","torrent":{"xt":"urn:btih:c3b2ccaa0f7e4a0bb25a4368663895e42deaabf6","amp;dn":"Poltergeist+%282015%29+720p+HD-Rip+x264+%5BDual-Audio%5D%5BEnglish+Hindi%5D","amp;tr":["udp%3A%2F%2Ftracker.openbittorrent.com%3A80","udp%3A%2F%2Fopen.demonii.com%3A1337","udp%3A%2F%2Ftracker.coppersurfer.tk%3A6969","udp%3A%2F%2Fexodus.desync.com%3A6969"],"infoHash":"c3b2ccaa0f7e4a0bb25a4368663895e42deaabf6","infoHashBuffer":{"type":"Buffer","data":[195,178,204,170,15,126,74,11,178,90,67,104,102,56,149,228,45,234,171,246]},"announce":[],"urlList":[]}}